inDegrees=no
num_controls=7
num_derivatives=13
num_iterations=132
num_multipliers=7
num_parameters=0
num_slacks=7
num_states=26
objective=0.498379
objective_accelerations=0.041140
objective_balance=0.003560
objective_effort=0.039522
objective_height=0.408309
objective_ligament=0.005847
solver_duration=1477.045492
status=Solve_Succeeded
success=true
DataType=double
version=3
OpenSimVersion=4.5
endheader
time	/jointset/ground_pelvis/pelvis_tilt/value	/jointset/ground_pelvis/pelvis_tx/value	/jointset/ground_pelvis/pelvis_ty/value	/jointset/hip_r/hip_flexion_r/value	/jointset/hip_r/hip_adduction_r/value	/jointset/hip_r/hip_rotation_r/value	/jointset/back/lumbar_extension/value	/jointset/patellofemoral_r/patellar_flexion_r/value	/jointset/knee_r/knee_flexion_r/value	/jointset/knee_r/knee_adduction_r/value	/jointset/knee_r/knee_rotation_r/value	/jointset/ankle_r/ankle_angle_r/value	/jointset/subtalar_r/subtalar_angle_r/value	/jointset/ground_pelvis/pelvis_tilt/speed	/jointset/ground_pelvis/pelvis_tx/speed	/jointset/ground_pelvis/pelvis_ty/speed	/jointset/hip_r/hip_flexion_r/speed	/jointset/hip_r/hip_adduction_r/speed	/jointset/hip_r/hip_rotation_r/speed	/jointset/back/lumbar_extension/speed	/jointset/patellofemoral_r/patellar_flexion_r/speed	/jointset/knee_r/knee_flexion_r/speed	/jointset/knee_r/knee_adduction_r/speed	/jointset/knee_r/knee_rotation_r/speed	/jointset/ankle_r/ankle_angle_r/speed	/jointset/subtalar_r/subtalar_angle_r/speed	/forceset/tau_hip_flexion_r	/forceset/tau_hip_adduction_r	/forceset/tau_hip_rotation_r	/forceset/tau_knee_flexion_r	/forceset/tau_ankle_angle_r	/forceset/tau_subtalar_angle_r	/forceset/tau_lumbar_extension	lambda_cid13_p0	lambda_cid14_p0	lambda_cid14_p1	lambda_cid14_p2	lambda_cid14_p3	lambda_cid14_p4	lambda_cid14_p5	/jointset/ground_pelvis/pelvis_tilt/accel	/jointset/ground_pelvis/pelvis_tx/accel	/jointset/ground_pelvis/pelvis_ty/accel	/jointset/hip_r/hip_flexion_r/accel	/jointset/hip_r/hip_adduction_r/accel	/jointset/hip_r/hip_rotation_r/accel	/jointset/back/lumbar_extension/accel	/jointset/patellofemoral_r/patellar_flexion_r/accel	/jointset/knee_r/knee_flexion_r/accel	/jointset/knee_r/knee_adduction_r/accel	/jointset/knee_r/knee_rotation_r/accel	/jointset/ankle_r/ankle_angle_r/accel	/jointset/subtalar_r/subtalar_angle_r/accel	gamma_cid13_p0	gamma_cid14_p0	gamma_cid14_p1	gamma_cid14_p2	gamma_cid14_p3	gamma_cid14_p4	gamma_cid14_p5
0	-0.006515160543301892	0.09626019629662007	0.9427240855783197	0.1762555222360518	-0.2321526148295435	-0.2616394651992933	-0.038598046466844	0.07317863873450973	0.07317863873451017	0.1745325005023494	0.174531737315818	0.03247278518263602	-0.003451911812905255	0	0	0	0	0	0	0	0	0	0	0	0	0	0.2201199755425806	-0.2608256903341439	-0.04217698642782311	-0.4014099093364442	0.375385469768841	-0.05068787068050933	-0.1172680421300595	-39.07623921350237	74.47819951634317	0.3668112195957048	-10.26699269778865	-33.4062079846337	-678.2020245254524	137.1323975105761	-1.708936017583451	-1.018421467192064	-0.5747552076542611	8.587561622607238	0.1977197901510326	2.479943080764475	-4.872134665977709	9.358268779663559	9.35826877966996	-2.92146583593314	0.1818896612585514	3.329180144157925	0.9570715273824296	1.070313987771643e-07	6.096586675649878e-08	-7.171426191935559e-07	2.688192640760581e-07	3.40282468789837e-08	3.637316640685142e-08	-4.080119894453228e-07
0.01	-0.006594811477758001	0.09621119709722939	0.9426964473514099	0.1766698249972108	-0.2321422153799814	-0.2615068486795342	-0.03884404294537316	0.073633406242211	0.07363340624221186	0.1743879859002162	0.1745287282854306	0.03263661701738529	-0.003404237094986327	-0.01591294065511977	-0.009637126906653802	-0.005519855463734102	0.08239736017746904	0.001969986832061162	0.02641402502518767	-0.04887181009779225	0.0905757857806906	0.09057578578068558	-0.02856084101055789	-0.00058504380846768	0.0327475434064341	0.009415134099429829	0.2203195390838333	-0.2769862420551852	-0.0425062823587682	-0.4059428567267835	0.3810259371033669	-0.0378977617022031	-0.1166681566102552	-39.09137997885837	76.80662499832552	6.242971722158146	-11.10526841958943	-36.54998536392697	-678.7358032530955	149.1050670648196	-1.529880792117074	-0.9119445510706358	-0.5394249533681618	7.996349887574553	0.1800892864460331	2.705802300357222	-4.845581340458432	8.850554706946227	8.850554706941542	-2.772163764908395	-0.1761147917205156	3.244735150220296	0.9156810633079782	1.355734978596422e-07	5.623399179348501e-08	-9.253033363421591e-07	2.372406388120886e-07	6.765007607632072e-08	-1.415166227676542e-07	-4.439006387832044e-07
0.02	-0.006833073359293926	0.0960707093790384	0.942613845722336	0.1778942066945955	-0.2321154258307563	-0.2611133578921317	-0.03956893295663584	0.07498259585366104	0.07498259585366032	0.1739681087817101	0.1745203861389982	0.03312736302846574	-0.003266021693656159	-0.03172218941587739	-0.01829770376006659	-0.01099268043283927	0.1620157872452488	0.003278019932617984	0.05217485352882897	-0.0957787065467207	0.1788844207483586	0.1788844207483197	-0.05507250327276737	-0.001066623209778484	0.06538283526623404	0.01810813668224852	0.2205191026250916	-0.2931467937762294	-0.04283557828975879	-0.4104758041171045	0.3866664044378973	-0.02510765272389816	-0.1160682710904517	-39.1361594817412	79.21772625022322	12.12140822040208	-11.92996981967285	-39.88601544869862	-678.0291531195186	160.861510774455	-1.688197638711011	-0.8231114565438752	-0.5653491087284738	8.031775000669386	0.06532904385017028	2.349303776455221	-4.479151936204945	8.904838617059031	8.904838617059673	-2.51163008626347	0.2025825426899058	3.306729834831078	0.8126452240602048	1.641155969421203e-07	5.150211683047125e-08	-1.133464053490762e-06	2.05662013548119e-07	1.012719052736577e-07	-3.194064119421599e-07	-4.797892881210861e-07
0.03	-0.007228408553275904	0.09584689345156729	0.9424765382424668	0.1799025367284825	-0.232078427666041	-0.2604681880682819	-0.04075266475178267	0.07720422224360528	0.07720422224360579	0.1732927172538112	0.174510036818131	0.03394214212629717	-0.003044372221191618	-0.04723657585297642	-0.02646154053779319	-0.01647432263098871	0.2392857746711166	0.004068811601555208	0.07673682221974107	-0.1406414843409708	0.2650483165064406	0.26504831650645	-0.07975668060036317	-0.001023924286215855	0.09736644231205398	0.02612099065723083	0.2125307378005112	-0.2826380873125184	-0.04070250511035026	-0.3992900560243285	0.3712089061411942	-0.02774527545942773	-0.1099550298005192	-39.20946620684392	74.19033630443313	10.10283937007602	-11.61639102309134	-36.31683621816348	-677.3430110843238	155.4464929076743	-1.466802296734353	-0.8124082187452862	-0.5404624388843702	7.5199528944081	0.07790493232491058	2.491360916330684	-4.440915479767574	8.413251006599623	8.413251006606405	-2.409600088413888	-0.09791086891913582	3.113225863423188	0.7803348551396807	1.809541652283877e-07	4.865671187055364e-08	-1.25497989817293e-06	1.948636714964321e-07	1.201061654816086e-07	-4.366232652177289e-07	-5.088403334379378e-07
